# xmcd CD database file
#
# Track frame offsets:
#	150
#	14902
#	34845
#	54738
#	69407
#	89484
#	101760
#	115222
#	129656
#	144586
#	153718
#	167240
#
# Disc length: 2395 seconds
#
# Revision: 0
# Processed by: cddbd v1.5.2PL0 Copyright (c) Steve Scherf et al.
# Submitted via: CDex 1.51
#
DISCID=b309590c
DTITLE=Brian Evans (with William Shatner) - Brian Evans Live
DYEAR=2005
DGENRE=Jazz
TTITLE0=Mack The Knife
TTITLE1=Under My Skin
TTITLE2=Nice And Easy
TTITLE3=You [composed by Evans]
TTITLE4=That's Life
TTITLE5=World On A String
TTITLE6=All The Way
TTITLE7=Maybe This Time
TTITLE8=New York, NY
TTITLE9=What Kind Of Fool Am I [performed by Shatner]
TTITLE10=Lady Is A Tramp [performed by Shatner]
TTITLE11=Oh! Look At Me Now [bonus studio track]
EXTD=YEAR: 2005
EXTT0=
EXTT1=
EXTT2=
EXTT3=
EXTT4=
EXTT5=
EXTT6=
EXTT7=
EXTT8=
EXTT9=
EXTT10=
EXTT11=
PLAYORDER=
